<svg width="512" height="512" viewBox="0 0 512 512" fill="none" xmlns="http://www.w3.org/2000/svg">
<circle cx="256" cy="256" r="256" fill="#06091A"/>
<path d="M156.247 119.027L158.381 125.635L156.247 119.027L153.301 119.978C133.003 126.534 120.379 146.758 123.405 167.873L124.047 172.35C125.686 183.795 131.307 194.295 139.92 202.007L140.939 202.92C147.111 208.445 154.493 212.445 162.492 214.597L177.45 218.622C180.009 219.31 182.664 219.574 185.309 219.402L184.855 212.417L185.309 219.402L188.097 219.221C205.795 218.071 215.364 197.945 205.084 183.492C204.823 183.125 204.591 182.739 204.39 182.336L203.412 180.372C200.878 175.286 199.559 169.681 199.559 163.999L199.559 161.974L199.559 150.552C199.559 135.44 189.332 122.243 174.698 118.471C168.619 116.905 162.22 117.097 156.247 119.027Z" fill="#88B2F9" stroke="#88B2F9" stroke-width="14" stroke-linejoin="round"/>
<path d="M135.095 357.315L135.063 359.675C134.819 377.569 149.31 392.178 167.205 392.078C170.909 392.058 174.581 391.394 178.057 390.116L188.224 386.379C196.842 383.211 204.549 377.974 210.668 371.129L214.45 366.898C220.534 360.091 224.101 351.384 224.566 342.278C225.778 318.517 206.024 298.869 182.23 300.389C172.878 300.986 164.036 304.86 157.257 311.329L154.308 314.143C148.527 319.66 144.122 326.456 141.447 333.985L137.07 346.305C135.814 349.842 135.146 353.562 135.095 357.315Z" fill="#88B2F9" stroke="#88B2F9" stroke-width="14" stroke-linejoin="round"/>
<path d="M378.494 355.941L378.609 358.308C379.48 376.239 365.464 391.392 347.52 391.918C343.807 392.027 340.103 391.49 336.573 390.331L326.241 386.937C317.487 384.062 309.574 379.08 303.197 372.429L299.255 368.317C292.915 361.705 289.034 353.099 288.249 343.985C286.202 320.202 305.321 299.81 329.232 300.501C338.63 300.772 347.631 304.346 354.655 310.596L357.713 313.316C363.703 318.646 368.359 325.307 371.305 332.764L376.128 344.973C377.512 348.475 378.311 352.18 378.494 355.941Z" fill="#88B2F9" stroke="#88B2F9" stroke-width="14" stroke-linejoin="round"/>
<path d="M313.078 161.615C313.078 161.533 313.079 161.452 313.082 161.371L313.475 150.101C313.997 135.149 324.572 122.445 339.181 119.219C345.249 117.879 351.573 118.291 357.417 120.406L360.291 121.446C380.134 128.629 391.917 149.061 388.196 169.834L387.409 174.23C385.393 185.486 379.475 195.672 370.694 202.998L369.657 203.863C363.367 209.111 355.932 212.81 347.951 214.661L333.053 218.117C330.495 218.71 327.857 218.879 325.243 218.618L323.701 218.463C305.816 216.672 296.771 196.091 307.399 181.723L307.463 181.619C311.135 175.593 313.078 168.672 313.078 161.615Z" fill="#88B2F9" stroke="#88B2F9" stroke-width="14" stroke-linejoin="round"/>
<circle cx="256" cy="256" r="240" stroke="#E6BDFA" stroke-width="32" stroke-linejoin="round"/>
</svg>
